# File created by Blade
# Date/Time:  Tue Jan 27 19:05:02 2015
# Frame Rate: 120.000 fps
#------------------------------------------------------
:FULLY-SPECIFIED
:DEGREES
1845
root -1.977787 31.710729 -4.676598 7.779586 -15.489566 -5.361243
Spine -0.702539 -3.558992 -0.747866
Head 28.303793 -2.924002 2.538875
LeftShoulder -19.298197 19.004445 12.721638
LeftArm 6.031826 -51.376887 -73.053666
LeftForeArm -5.644761 -0.000000 100.480525
LeftHand -13.223013 -0.000000 24.023055
LeftHandThumb1 -26.253704 0.000000 33.147579
RightShoulder -13.888100 -3.002786 -10.102347
RightArm 8.573596 -26.247025 80.000586
RightForeArm -24.602240 -0.000000 20.720748
RightHand -14.752357 0.000000 9.343603
RightHandThumb1 -24.326973 -0.000000 -32.862282
LeftUpLeg -8.373985 3.043556 -6.290628
LeftLeg 14.832431 -0.000000 -0.000000
LeftFoot -26.106272 27.820199 -13.102019
LeftToeBase 10.218086 -0.000000 -0.000000
RightUpLeg -26.091483 -31.899648 1.765202
RightLeg 92.995177 -0.000000 -0.000000
RightFoot -17.939880 -14.201523 11.023656
RightToeBase -9.060632 -0.000000 0.000000
1846
root -1.969886 31.713291 -4.687048 7.804761 -15.508808 -5.408376
Spine -0.688354 -3.570536 -0.663236
Head 28.288333 -2.844073 2.526341
LeftShoulder -19.300610 19.019692 12.691685
LeftArm 5.906397 -51.390283 -72.919489
LeftForeArm -5.693317 -0.000000 100.412103
LeftHand -13.217105 -0.000000 24.222693
LeftHandThumb1 -26.253704 0.000000 33.147579
RightShoulder -13.886221 -2.926907 -10.132813
RightArm 8.489054 -26.155867 80.101962
RightForeArm -24.660473 -0.000000 20.852966
RightHand -14.725858 0.000000 9.324318
RightHandThumb1 -24.326973 -0.000000 -32.862282
LeftUpLeg -8.454366 3.075395 -6.256659
LeftLeg 14.932679 -0.000000 -0.000000
LeftFoot -26.158677 27.782924 -13.175846
LeftToeBase 10.225277 -0.000000 -0.000000
RightUpLeg -25.995658 -31.414025 1.526037
RightLeg 91.235325 -0.000000 -0.000000
RightFoot -18.310019 -13.771644 10.914000
RightToeBase -9.366733 -0.000000 0.000000
1847
root -1.959645 31.714860 -4.699365 7.843209 -15.554708 -5.441708
Spine -0.687474 -3.569342 -0.589088
Head 28.261470 -2.746662 2.502184
LeftShoulder -19.301653 19.015823 12.677449
LeftArm 5.774492 -51.411219 -72.819110
LeftForeArm -5.825691 0.000000 100.344924
LeftHand -13.162129 -0.000000 24.421998
LeftHandThumb1 -26.253704 0.000000 33.147579
RightShoulder -13.881228 -2.881516 -10.157039
RightArm 8.454686 -26.106966 80.174800
RightForeArm -24.674191 -0.000000 20.988815
RightHand -14.775885 0.000000 9.207454
RightHandThumb1 -24.326973 -0.000000 -32.862282
LeftUpLeg -8.560344 3.112289 -6.242713
LeftLeg 15.040674 -0.000000 -0.000000
LeftFoot -26.194831 27.754418 -13.250524
LeftToeBase 10.160477 -0.000000 -0.000000
RightUpLeg -25.919501 -30.930380 1.297964
RightLeg 89.392747 -0.000000 -0.000000
RightFoot -18.296517 -13.676196 10.216931
RightToeBase -10.952287 -0.000000 0.000000
1848
root -1.948569 31.715285 -4.711093 7.883143 -15.590066 -5.472764
Spine -0.696056 -3.584575 -0.508473
Head 28.240549 -2.639403 2.475798
LeftShoulder -19.297626 19.014148 12.648459
LeftArm 5.595206 -51.439718 -72.648591
LeftForeArm -5.864142 -0.000000 100.270228
LeftHand -13.184428 -0.000000 24.510291
LeftHandThumb1 -26.253704 0.000000 33.147579
RightShoulder -13.859621 -2.818951 -10.184202
RightArm 8.384359 -26.047058 80.259607
RightForeArm -24.703768 -0.000000 21.143827
RightHand -14.879321 -0.000000 9.174860
RightHandThumb1 -24.326973 -0.000000 -32.862282
LeftUpLeg -8.674532 3.133158 -6.234648
LeftLeg 15.161750 -0.000000 -0.000000
LeftFoot -26.275555 27.723453 -13.344135
LeftToeBase 10.306212 -0.000000 -0.000000
RightUpLeg -25.835418 -30.465440 1.065846
RightLeg 87.452056 -0.000000 -0.000000
RightFoot -18.588689 -13.378320 9.958109
RightToeBase -10.972929 -0.000000 0.000000
1849
root -1.938380 31.714715 -4.722890 7.907727 -15.642786 -5.502506
Spine -0.686415 -3.601549 -0.437686
Head 28.210667 -2.527730 2.463370
LeftShoulder -19.322110 19.005800 12.606273
LeftArm 5.366579 -51.434697 -72.389335
LeftForeArm -5.873611 -0.000000 100.191634
LeftHand -13.184862 -0.000000 24.484233
LeftHandThumb1 -26.253704 0.000000 33.147579
RightShoulder -13.821434 -2.747382 -10.204956
RightArm 8.304292 -25.981734 80.353654
RightForeArm -24.761840 -0.000000 21.293926
RightHand -14.942304 0.000000 9.407136
RightHandThumb1 -24.326973 -0.000000 -32.862282
LeftUpLeg -8.771225 3.168197 -6.225505
LeftLeg 15.287126 -0.000000 -0.000000
LeftFoot -26.344472 27.696893 -13.441341
LeftToeBase 10.290773 -0.000000 -0.000000
RightUpLeg -25.739819 -30.007559 0.841207
RightLeg 85.426373 -0.000000 -0.000000
RightFoot -18.885869 -13.115369 9.919105
RightToeBase -10.832219 -0.000000 0.000000
1850
root -1.932156 31.712467 -4.728810 7.917899 -15.643295 -5.508628
Spine -0.692876 -3.668036 -0.393458
Head 28.199398 -2.430048 2.464716
LeftShoulder -19.334490 19.021463 12.597831
LeftArm 5.181356 -51.440370 -72.193815
LeftForeArm -5.899311 -0.000000 100.108879
LeftHand -13.192617 -0.000000 24.523118
LeftHandThumb1 -26.253704 0.000000 33.147579
RightShoulder -13.812838 -2.724445 -10.205732
RightArm 8.254244 -25.924272 80.437763
RightForeArm -24.792208 -0.000000 21.454904
RightHand -14.952171 0.000000 9.390978
RightHandThumb1 -24.326973 -0.000000 -32.862282
LeftUpLeg -8.831905 3.179184 -6.227557
LeftLeg 15.378205 -0.000000 -0.000000
LeftFoot -26.395891 27.647451 -13.480657
LeftToeBase 10.296102 -0.000000 -0.000000
RightUpLeg -25.608478 -29.679494 0.611058
RightLeg 83.350386 -0.000000 -0.000000
RightFoot -19.128338 -12.861467 9.816821
RightToeBase -10.610704 -0.000000 0.000000
1851
root -1.919671 31.708866 -4.742407 7.923122 -15.723107 -5.515299
Spine -0.654102 -3.651904 -0.347750
Head 28.130699 -2.331430 2.462075
LeftShoulder -19.351838 19.018895 12.593733
LeftArm 5.093984 -51.425341 -72.108521
LeftForeArm -6.034795 0.000000 100.019295
LeftHand -13.159579 0.000000 24.840291
LeftHandThumb1 -26.253704 0.000000 33.147579
RightShoulder -13.799950 -2.661709 -10.214329
RightArm 8.212058 -25.873741 80.512873
RightForeArm -24.836361 -0.000000 21.597455
RightHand -14.942974 -0.000000 9.381074
RightHandThumb1 -24.326973 -0.000000 -32.862282
LeftUpLeg -8.916561 3.191124 -6.244608
LeftLeg 15.494072 -0.000000 -0.000000
LeftFoot -26.466492 27.673244 -13.534097
LeftToeBase 10.315696 -0.000000 -0.000000
RightUpLeg -25.504652 -29.303626 0.398724
RightLeg 81.209664 -0.000000 -0.000000
RightFoot -19.243373 -12.786533 9.548634
RightToeBase -11.377676 -0.000000 0.000000
1852
root -1.910957 31.704819 -4.751250 7.921426 -15.778953 -5.503892
Spine -0.647045 -3.668106 -0.338107
Head 28.112929 -2.256147 2.497514
LeftShoulder -19.363327 19.043721 12.608630
LeftArm 4.927614 -51.384646 -71.926650
LeftForeArm -6.115521 -0.000000 99.938141
LeftHand -13.197243 -0.000000 24.967093
LeftHandThumb1 -26.253704 0.000000 33.147579
RightShoulder -13.774439 -2.635228 -10.180755
RightArm 8.159966 -25.838411 80.551032
RightForeArm -24.846183 -0.000000 21.787620
RightHand -14.933749 0.000000 9.357686
RightHandThumb1 -24.326973 -0.000000 -32.862282
LeftUpLeg -8.960455 3.184281 -6.274095
LeftLeg 15.547019 -0.000000 -0.000000
LeftFoot -26.528096 27.715424 -13.585008
LeftToeBase 10.327667 -0.000000 -0.000000
RightUpLeg -25.360137 -28.971929 0.182947
RightLeg 78.992137 -0.000000 -0.000000
RightFoot -19.420925 -12.669621 9.391421
RightToeBase -11.300905 -0.000000 0.000000
1853
root -1.901362 31.699024 -4.759939 7.918217 -15.846631 -5.459358
Spine -0.646307 -3.650493 -0.365855
Head 28.077149 -2.214878 2.552762
LeftShoulder -19.354101 19.053989 12.635667
LeftArm 4.773410 -51.345693 -71.739551
LeftForeArm -6.205182 0.000000 99.841988
LeftHand -13.191013 0.000000 25.041082
LeftHandThumb1 -26.253704 0.000000 33.147579
RightShoulder -13.794703 -2.613569 -10.147177
RightArm 8.133301 -25.815071 80.608947
RightForeArm -24.892290 -0.000000 21.929503
RightHand -14.911325 -0.000000 9.266688
RightHandThumb1 -24.326973 -0.000000 -32.862282
LeftUpLeg -9.004571 3.226602 -6.341437
LeftLeg 15.580812 -0.000000 -0.000000
LeftFoot -26.555328 27.736972 -13.602667
LeftToeBase 10.371611 -0.000000 -0.000000
RightUpLeg -25.232660 -28.688481 -0.033636
RightLeg 76.740348 -0.000000 -0.000000
RightFoot -19.644552 -12.481323 9.406213
RightToeBase -11.571453 -0.000000 0.000000
1854
root -1.892357 31.693305 -4.768241 7.911326 -15.927352 -5.409951
Spine -0.646280 -3.624623 -0.406535
Head 28.048596 -2.185352 2.608407
LeftShoulder -19.352994 19.076119 12.674207
LeftArm 4.652623 -51.297895 -71.593873
LeftForeArm -6.282996 -0.000000 99.737807
LeftHand -13.162469 -0.000000 25.116300
LeftHandThumb1 -26.253704 0.000000 33.147579
RightShoulder -13.779660 -2.519715 -10.110792
RightArm 7.976423 -25.754704 80.705598
RightForeArm -24.895243 -0.000000 22.125872
RightHand -14.848755 -0.000000 9.254099
RightHandThumb1 -24.326973 -0.000000 -32.862282
LeftUpLeg -9.033859 3.271086 -6.412110
LeftLeg 15.586623 -0.000000 -0.000000
LeftFoot -26.599919 27.748406 -13.635574
LeftToeBase 10.370014 -0.000000 -0.000000
RightUpLeg -25.091476 -28.453951 -0.225045
RightLeg 74.412014 -0.000000 -0.000000
RightFoot -19.552919 -12.719361 8.842134
RightToeBase -12.732790 -0.000000 0.000000
1855
root -1.883200 31.686877 -4.776451 7.902146 -16.021713 -5.343166
Spine -0.654936 -3.585201 -0.468163
Head 28.025042 -2.165629 2.662932
LeftShoulder -19.343449 19.094588 12.708845
LeftArm 4.519871 -51.269319 -71.414643
LeftForeArm -6.282003 -0.000000 99.621552
LeftHand -13.157577 -0.000000 25.009155
LeftHandThumb1 -26.253704 0.000000 33.147579
RightShoulder -13.790576 -2.540842 -10.056255
RightArm 7.996167 -25.730882 80.742549
RightForeArm -24.864325 -0.000000 22.235416
RightHand -14.797485 -0.000000 9.002558
RightHandThumb1 -24.326973 -0.000000 -32.862282
LeftUpLeg -9.068898 3.334196 -6.500944
LeftLeg 15.615638 -0.000000 -0.000000
LeftFoot -26.649128 27.800999 -13.692269
LeftToeBase 10.285878 -0.000000 -0.000000
RightUpLeg -24.959703 -28.257192 -0.416884
RightLeg 72.047982 -0.000000 -0.000000
RightFoot -19.710838 -12.874540 8.985426
RightToeBase -12.677150 -0.000000 0.000000
1856
root -1.877563 31.681148 -4.784195 7.887946 -16.096229 -5.289835
Spine -0.663332 -3.565726 -0.518822
Head 28.027762 -2.151667 2.721672
LeftShoulder -19.328285 19.101584 12.751449
LeftArm 4.411056 -51.238963 -71.268295
LeftForeArm -6.333487 -0.000000 99.514684
LeftHand -13.150502 -0.000000 25.013221
LeftHandThumb1 -26.253704 0.000000 33.147579
RightShoulder -13.791213 -2.531054 -10.001863
RightArm 7.942485 -25.686664 80.813437
RightForeArm -24.996776 -0.000000 22.367648
RightHand -14.855945 -0.000000 9.121071
RightHandThumb1 -24.326973 -0.000000 -32.862282
LeftUpLeg -9.078095 3.355080 -6.563611
LeftLeg 15.607968 -0.000000 -0.000000
LeftFoot -26.676845 27.830047 -13.706493
LeftToeBase 10.253304 -0.000000 -0.000000
RightUpLeg -24.794344 -28.130845 -0.558071
RightLeg 69.623322 -0.000000 -0.000000
RightFoot -19.862974 -12.986032 9.545252
RightToeBase -13.323646 -0.000000 0.000000
1857
root -1.875185 31.675575 -4.786247 7.857298 -16.136066 -5.208962
Spine -0.682478 -3.572354 -0.606077
Head 28.054508 -2.132278 2.800902
LeftShoulder -19.337144 19.162460 12.784132
LeftArm 4.441922 -51.188708 -71.217986
LeftForeArm -6.412196 -0.000000 99.385558
LeftHand -13.094286 -0.000000 25.095891
LeftHandThumb1 -26.253704 0.000000 33.147579
RightShoulder -13.828014 -2.602171 -9.921593
RightArm 7.999474 -25.720813 80.845432
RightForeArm -24.996270 -0.000000 22.423527
RightHand -14.846150 -0.000000 9.041110
RightHandThumb1 -24.326973 -0.000000 -32.862282
LeftUpLeg -9.061868 3.353601 -6.645909
LeftLeg 15.587714 -0.000000 -0.000000
LeftFoot -26.718876 27.814651 -13.763124
LeftToeBase 10.333779 -0.000000 -0.000000
RightUpLeg -24.583477 -28.068402 -0.715490
RightLeg 67.143502 -0.000000 -0.000000
RightFoot -20.068725 -13.325519 9.732236
RightToeBase -13.191906 -0.000000 0.000000
